<?xml version="1.0" encoding="utf-8"?>
<!-- Svg Vector Icons : http://www.onlinewebfonts.com/icon -->
<!DOCTYPE svg PUBLIC "-//W3C//DTD SVG 1.1//EN" "http://www.w3.org/Graphics/SVG/1.1/DTD/svg11.dtd">
<svg version="1.1" xmlns="http://www.w3.org/2000/svg" xmlns:xlink="http://www.w3.org/1999/xlink" x="0px" y="0px" viewBox="0 0 1000 1000" enable-background="new 0 0 1000 1000" xml:space="preserve">
<metadata> Svg Vector Icons : http://www.onlinewebfonts.com/icon </metadata>
<g><g transform="translate(0.000000,502.000000) scale(0.100000,-0.100000)"><path fill="rgb(229, 218, 218)" d="M3295.1,4019.3c-980.7-494.2-1635.7-835.1-1672.1-871.5c-36.4-34.5-356.3-586.1-785.3-1354.2C286,805.3,111.7,477.8,104,412.7C69.5,161.7,261.1-58.5,513.9-58.5c120.7,0,258.6,59.4,316,137.9c23,30.6,344.8,593.8,712.5,1252.7l670.4,1199l1394.4,701l1392.5,703l1394.4-701l1392.5-702.9L8457,1334C8826.7,673.1,9146.6,110,9169.6,79.4c111.1-149.4,383.1-183.9,545.9-69c53.6,36.4,101.5,93.8,136,160.9c46,90,53.6,122.6,46,212.6c-7.7,99.6-67,210.7-722.1,1388.7c-392.7,704.9-733.6,1308.2-758.5,1340.8c-34.5,47.9-289.2,183.9-1218.2,655.1C5011.3,4873.6,5135.8,4814.2,5015.1,4821.9l-107.3,7.7L3295.1,4019.3z"/><path fill="rgb(229, 218, 218)" d="M3793.1,2808.8l-1176-597.6l-628.3-1120.5L1362.4-29.8l-1.9-2378.9v-2380.8h1049.6h1049.6l770,641.7l770,641.7l771.9-641.7l770-641.7h1049.6H8639v2375.1V-39.4l-614.8,1105.2c-339,609.1-632.1,1120.5-651.2,1139.7c-46,40.2-2350.2,1202.9-2380.8,1200.9C4980.6,3406.4,4440.5,3136.3,3793.1,2808.8z M5727.6,698V-1.1h-708.7h-708.7V698v699.1h708.7h708.7V698z M6530.2-1694.3c-419.5-354.3-1517-1256.5-1530.4-1256.5c-11.5,0-360.1,285.4-777.7,632.1l-758.5,632.1h1538.1C5846.4-1686.6,6534-1690.4,6530.2-1694.3z M4021-2694.1c312.2-260.5,582.3-486.5,601.4-505.7c34.5-32.6,11.5-53.6-561.2-528.6c-327.5-273.9-603.3-498-612.9-501.8c-11.5-3.8-19.2,365.8-19.2,999.8c0,553.5,5.7,1007.5,11.5,1007.5C3446.4-2222.9,3708.8-2435.5,4021-2694.1z M6547.4-3738l-5.7-496.1L5944-3741.8c-329.4,272-597.6,499.9-597.6,507.6c-1.9,7.7,268.2,239.4,597.6,513.3l597.6,499.9l5.7-509.5C6549.3-3012.1,6549.3-3464.1,6547.4-3738z"/></g></g>
</svg>
