<?xml version="1.0" encoding="utf-8"?>
<!-- Svg Vector Icons : http://www.onlinewebfonts.com/icon -->
<!DOCTYPE svg PUBLIC "-//W3C//DTD SVG 1.1//EN" "http://www.w3.org/Graphics/SVG/1.1/DTD/svg11.dtd">
<svg version="1.1" xmlns="http://www.w3.org/2000/svg" xmlns:xlink="http://www.w3.org/1999/xlink" x="0px" y="0px" viewBox="0 0 1000 1000" enable-background="new 0 0 1000 1000" xml:space="preserve">
<metadata> Svg Vector Icons : http://www.onlinewebfonts.com/icon </metadata>
<g><g transform="translate(0.000000,512.000000) scale(0.100000,-0.100000)"><path fill="#fff" d="M2523.9,4999.4c-290.9-38.3-625.8-151.2-870.8-294.7c-229.7-134-543.5-474.6-725.4-784.7c-44-72.7-107.2-216.3-141.6-315.8l-63.2-181.8l-5.7-3646l-3.8-3646l-285.2-287.1c-156.9-156.9-294.7-306.2-306.2-329.2c-40.2-80.4-24.9-158.8,44-227.7l65.1-65.1h4463.2h4463.2l65,65.1l65.1,65.1v1667v1667h210.5c139.7,0,233.5,9.6,277.5,26.8c67,28.7,124.4,112.9,124.4,181.8c0,57.4-838.3,2149.3-876.5,2187.6c-17.2,17.2-604.8,269.9-1303.4,560.8c-983.7,409.6-1282.3,526.3-1320.6,516.7c-26.8-7.7-348.3-135.9-713.8-289c-363.7-151.2-668-275.6-673.7-275.6c-5.7,0-11.5,384.7-11.5,857.4c0,937.8-5.7,991.4-114.8,1253.6c-137.8,331.1-530.2,803.8-811.5,979.9C3649.2,4949.7,3063.6,5068.3,2523.9,4999.4z M3067.4,4597.5c428.7-51.7,734.9-181.8,976.1-411.5c170.3-162.7,357.9-400,430.6-541.6c47.8-97.6,95.7-250.7,114.8-379l13.4-82.3H2858.8H1113.3l13.4,101.4c38.3,304.3,227.7,625.8,553.1,928.2c202.9,191.4,553.1,336.8,918.7,384.7C2789.9,4620.5,2883.7,4620.5,3067.4,4597.5z M4588.9,2092.2v-679.4l-354.1-147.4c-195.2-80.4-371.3-162.7-394.3-181.8c-36.4-32.5-888-2128.3-888-2185.7c0-13.4,13.4-53.6,30.6-88.1c45.9-99.5,122.5-124.4,369.4-124.4H3565v-1224.9v-1224.9l-1219.2,3.8l-1221.1,5.7l-5.7,3244c-1.9,1783.8,0,3255.5,5.7,3268.9c5.7,19.1,363.6,23,1735.9,19.1l1728.2-5.7V2092.2z M7593.8,1253.9L8721,781.2l321.6-803.8c178-442.1,327.3-819.1,333-836.4c9.6-30.6-7.6-34.4-178-34.4H9010l-285.2,669.9c-158.8,369.4-300.5,683.3-315.8,696.7c-49.8,44-1929.2,872.7-1978.9,872.7c-38.3,0-1824-780.9-1957.9-855.5c-28.7-17.2-128.2-225.8-333-704.3l-290.9-679.4h-189.5c-105.3,0-189.5,1.9-189.5,5.7c0,1.9,149.3,379,333,836.4l333,832.6L5260.7,1252c620.1,260.3,1144.5,472.7,1165.5,472.7S6971.7,1512.3,7593.8,1253.9z M7266.5,547.7c442.1-195.2,815.3-363.6,828.7-373.2c11.5-9.6,143.5-302.4,292.8-652.6c346.4-805.7,331.1-777,423-813.4l74.6-28.7l-3.8-1523.5l-5.8-1523.5h-507.2h-507.2l-3.8,1119.6c-3.8,616.3-5.8,1138.8-5.8,1163.6c0,24.9-24.9,70.8-55.5,101.5l-55.5,55.5H6435.8c-857.4,0-1316.7-7.6-1341.6-19.1c-93.8-51.7-93.8-51.7-93.8-1282.3v-1148.3h-507.2h-507.2v1531.1v1531.1l63.2,24.9c32.5,15.3,70.8,38.3,84.2,53.6c13.4,15.3,155,338.7,317.7,715.8l294.7,689L5567,536.2c451.7,201,836.4,367.5,857.4,367.5C6443.5,905.6,6822.5,744.8,7266.5,547.7z M7144-2334.6c0-1.9-160.8-166.5-359.8-363.6l-357.9-357.9l-363.6,363.6L5699-2328.9h723.5C6818.6-2328.9,7144-2330.8,7144-2334.6z M5785.1-2989.2l354.1-354.1l-369.4-369.4l-367.5-367.5v723.4c0,396.2,5.8,721.5,15.3,721.5C5425.3-2635.1,5589.9-2794,5785.1-2989.2z M7450.2-3356.6v-723.4l-363.6,363.6l-363.6,363.6l357.9,357.9c197.1,199,361.7,359.8,363.6,359.8C7448.3-2635.1,7450.2-2960.5,7450.2-3356.6z M6799.5-4003.5l354.1-354.1h-717.7h-717.7l354.1,354.1c195.2,195.2,357.9,354.1,363.6,354.1C6441.6-3649.5,6604.3-3808.3,6799.5-4003.5z M3565-4271.5v-105.3H2183.2H801.4l103.3,105.3l103.3,105.3h1278.5H3565V-4271.5z"/><path fill="#fff" d="M6315.3,312.3c-114.8-28.7-222-91.9-310.1-183.7c-179.9-183.7-229.7-423-134-633.5c63.2-143.5,195.2-275.6,340.7-342.6c212.4-95.7,453.6-42.1,639.3,141.6c239.2,241.2,245,568.4,15.3,824.9C6734.4,266.4,6483.7,352.5,6315.3,312.3z M6579.4-137.5c38.3-36.4,47.9-65.1,47.9-141.6c0-122.5-11.5-151.2-78.5-183.7c-153.1-80.4-323.5,5.7-323.5,162.7c0,82.3,40.2,181.8,80.4,197.1c13.4,5.8,70.8,11.5,126.3,11.5C6514.3-89.6,6541.1-97.3,6579.4-137.5z"/></g></g>
</svg>
